<?xml version="1.0" encoding="UTF-8"?>
<!DOCTYPE svg PUBLIC "-//W3C//DTD SVG 1.1//EN" "http://www.w3.org/Graphics/SVG/1.1/DTD/svg11.dtd">
<!-- Creator: CorelDRAW X7 -->
<svg xmlns="http://www.w3.org/2000/svg" xml:space="preserve" width="50.8mm" height="50.7892mm" version="1.1" style="shape-rendering:geometricPrecision; text-rendering:geometricPrecision; image-rendering:optimizeQuality; fill-rule:evenodd; clip-rule:evenodd"
viewBox="0 0 5087 5085"
 xmlns:xlink="http://www.w3.org/1999/xlink">
 <defs>
  <style type="text/css">
   <![CDATA[
    .fil0 {fill:#2B2A29}
    .fil1 {fill:#912D2B}
   ]]>
  </style>
 </defs>
 <g id="Слой_x0020_1">
  <metadata id="CorelCorpID_0Corel-Layer"/>
  <g id="_2517584403312">
   <path class="fil0" d="M2301 4586l0 -421 37 5c68,8 137,13 205,13 69,0 137,-5 205,-13l38 -5 0 909 -31 3c-756,62 -1494,-211 -2026,-753l-30 -30 435 -252 18 17c319,293 719,477 1149,527z"/>
   <path class="fil0" d="M652 3354l365 -210 14 35c54,126 123,245 206,355l23 30 -788 455 -17 -26c-433,-624 -565,-1399 -362,-2131l12 -41 435 251 -5 24c-94,420 -53,863 117,1258z"/>
   <path class="fil0" d="M895 1311l365 211 -23 30c-83,109 -152,228 -206,354l-14 35 -787 -454 13 -28c324,-686 929,-1188 1665,-1378l41 -11 0 502 -23 8c-413,130 -773,384 -1031,731z"/>
   <path class="fil0" d="M4434 1731l-364 210 -15 -34c-53,-127 -122,-246 -205,-355l-23 -30 787 -455 18 25c432,624 564,1399 361,2131l-11 42 -435 -251 5 -24c94,-421 53,-864 -118,-1259z"/>
   <path class="fil0" d="M2786 499l0 421 -38 -4c-68,-9 -136,-13 -205,-13 -68,0 -137,4 -205,13l-37 4 0 -909 30 -2c757,-63 1495,211 2027,752l30 31 -435 251 -18 -16c-319,-293 -720,-477 -1149,-528z"/>
   <path class="fil0" d="M4192 3775l-365 -211 23 -30c83,-109 152,-229 205,-355l15 -35 760 439 27 15 -13 28c-325,687 -930,1189 -1665,1379l-42 11 0 -503 24 -7c413,-130 773,-385 1031,-731z"/>
   <path class="fil0" d="M2543 1254c712,0 1289,577 1289,1289 0,711 -577,1288 -1289,1288 -711,0 -1288,-577 -1288,-1288 0,-712 577,-1289 1288,-1289z"/>
   <path class="fil1" d="M2871 731c429,77 807,303 1077,623l-247 142 81 107c79,103 145,217 195,336l52 124 247 -143c70,195 108,404 108,623 0,218 -38,428 -108,622l-247 -142 -52 123c-51,119 -116,233 -195,336l-81 107 247 143c-270,319 -648,545 -1077,623l0 -286 -133 17c-65,8 -130,12 -195,12 -65,0 -130,-4 -194,-12l-133 -17 0 285c-429,-77 -807,-303 -1078,-622l247 -143 -81 -107c-78,-103 -144,-216 -194,-336l-52 -124 -248 143c-69,-194 -108,-404 -108,-622 0,-219 39,-428 108,-623l248 143 52 -124c50,-119 116,-233 194,-336l81 -107 -247 -142c271,-320 649,-546 1078,-623l0 285 133 -16c64,-8 129,-12 194,-12 65,0 130,4 195,12l133 16 0 -285zm-328 376c793,0 1436,643 1436,1436 0,793 -643,1436 -1436,1436 -793,0 -1436,-643 -1436,-1436 0,-793 643,-1436 1436,-1436z"/>
  </g>
 </g>
</svg>
