<?xml version="1.0" encoding="UTF-8"?>
<!DOCTYPE svg PUBLIC "-//W3C//DTD SVG 1.1//EN" "http://www.w3.org/Graphics/SVG/1.1/DTD/svg11.dtd">
<!-- Creator: CorelDRAW X7 -->
<svg xmlns="http://www.w3.org/2000/svg" xml:space="preserve" width="135.467mm" height="26.1364mm" version="1.1" style="shape-rendering:geometricPrecision; text-rendering:geometricPrecision; image-rendering:optimizeQuality; fill-rule:evenodd; clip-rule:evenodd"
viewBox="0 0 13046 2517"
 xmlns:xlink="http://www.w3.org/1999/xlink">
 <defs>
  <style type="text/css">
   <![CDATA[
    .fil0 {fill:#2B2A29}
    .fil2 {fill:#912D2B}
    .fil1 {fill:#2B2A29;fill-rule:nonzero}
   ]]>
  </style>
 </defs>
 <g id="Слой_x0020_1">
  <metadata id="CorelCorpID_0Corel-Layer"/>
  <g id="_2517585065632">
   <path class="fil0" d="M4686 1240l482 -477 -327 0 -430 459 0 -459 -243 0 0 991 243 0 0 -483 437 483 326 0 -488 -514zm-936 514c187,0 275,-86 275,-275l0 -126 -235 0 0 81c0,86 -30,116 -116,116l-258 0c-85,0 -116,-30 -116,-116l0 -351c0,-86 31,-116 116,-116l258 0c86,0 116,30 116,116l0 71 235 0 0 -116c0,-189 -88,-275 -275,-275l-419 0c-187,0 -275,86 -275,275l0 441c0,189 88,275 275,275l419 0zm-1294 -780l167 416 -332 0 165 -416zm582 780l-437 -991 -274 0 -439 991 258 0 72 -183 477 0 73 183 270 0zm-1707 -991l-244 0 0 991 776 0 0 -215 -532 0 0 -776zm-626 725c0,58 -21,79 -79,79l-382 0 0 -242 382 0c61,0 79,21 79,79l0 84zm-108 -538c58,0 80,21 80,79l0 54c0,61 -19,79 -80,79l-353 0 0 -212 353 0zm228 289c64,-26 95,-85 95,-179l0 -85c0,-147 -66,-212 -212,-212l-708 0 0 991 736 0c146,0 212,-65 212,-212l0 -115c0,-106 -41,-169 -123,-188zm7762 89l-358 -565 -214 0 0 991 226 0 0 -597 276 424 128 0 276 -424 0 597 226 0 0 -991 -203 0 -357 565zm1795 426l-438 -991 -273 0 -439 991 258 0 72 -183 477 0 72 183 271 0zm-582 -780l167 416 -333 0 166 -416zm1384 416c143,-11 206,-85 206,-245l0 -136c0,-175 -73,-246 -247,-246l-688 0 0 991 244 0 0 -345 238 0 229 345 266 0 -248 -364zm-135 -446c75,0 97,24 97,99l0 91c0,75 -22,99 -97,99l-350 0 0 -289 350 0zm1012 296l482 -477 -327 0 -430 459 0 -459 -243 0 0 991 243 0 0 -483 437 483 326 0 -488 -514zm-4706 628l-181 -104 11 -15c42,-54 76,-113 102,-176l7 -17 377 217 13 8 -7 14c-160,340 -460,588 -824,682l-20 5 0 -248 11 -4c205,-64 383,-190 511,-362zm-696 -1621l0 208 -19 -2c-33,-4 -67,-6 -101,-6 -34,0 -68,2 -102,6l-18 2 0 -449 15 -2c374,-31 739,105 1003,373l15 15 -216 124 -9 -8c-157,-145 -356,-236 -568,-261zm816 610l-181 104 -7 -17c-26,-63 -60,-122 -101,-176l-12 -15 390 -225 9 13c214,308 279,692 178,1054l-5 21 -216 -124 3 -12c46,-209 26,-428 -58,-623zm-1752 -208l180 104 -11 15c-41,54 -75,113 -101,176l-8 17 -389 -225 6 -14c161,-340 460,-588 824,-682l21 -5 0 248 -12 4c-204,64 -382,190 -510,362zm-120 1011l180 -104 8 17c26,63 60,122 101,176l11 15 -389 225 -9 -13c-214,-308 -279,-692 -179,-1054l6 -21 215 124 -2 12c-47,208 -26,428 58,623zm816 610l0 -208 18 2c34,4 68,6 102,6 34,0 68,-2 101,-6l19 -2 0 449 -15 2c-375,31 -740,-105 -1003,-373l-15 -15 215 -124 9 8c158,145 356,236 569,261z"/>
   <path class="fil0" d="M6539 621c352,0 637,285 637,638 0,352 -285,637 -637,637 -352,0 -638,-285 -638,-637 0,-353 286,-638 638,-638z"/>
   <path class="fil1" d="M12943 867l-66 -104 -40 0 0 182 42 0 0 -110 51 79 23 0 51 -79 0 110 42 0 0 -182 -38 0 -65 104zm-295 -104l0 40 63 0 0 142 45 0 0 -142 63 0 0 -40 -171 0z"/>
   <path class="fil2" d="M6701 362c212,38 399,150 533,308l-122 71 40 52c39,52 71,108 96,167l26 61 122 -71c35,97 54,200 54,308 0,109 -19,212 -54,309l-122 -71 -26 61c-25,59 -57,115 -96,167l-40 52 122 71c-134,158 -321,270 -533,308l0 -141 -66 8c-32,4 -64,6 -96,6 -32,0 -65,-2 -96,-6l-66 -8 0 141c-213,-38 -400,-150 -534,-308l123 -71 -40 -52c-39,-52 -72,-107 -97,-167l-25 -61 -123 71c-34,-97 -53,-200 -53,-309 0,-108 19,-211 53,-308l122 71 26 -61c25,-59 58,-115 97,-167l40 -52 -123 -71c134,-158 321,-270 534,-308l0 141 66 -8c32,-4 64,-6 96,-6 32,0 64,2 96,6l66 8 0 -141zm-162 186c392,0 711,318 711,710 0,393 -319,711 -711,711 -393,0 -711,-318 -711,-711 0,-392 318,-710 711,-710z"/>
  </g>
 </g>
</svg>
